<?xml version="1.0" standalone="no"?>
<!DOCTYPE svg PUBLIC "-//W3C//DTD SVG 20010904//EN"
 "http://www.w3.org/TR/2001/REC-SVG-20010904/DTD/svg10.dtd">
<svg version="1.0" xmlns="http://www.w3.org/2000/svg"
 width="400.000000pt" height="400.000000pt" viewBox="0 0 400.000000 400.000000"
 preserveAspectRatio="xMidYMid meet">

<g transform="translate(0.000000,400.000000) scale(0.100000,-0.100000)"
fill="#000000" stroke="none">
<path d="M1900 3299 c-169 -15 -312 -72 -503 -200 -94 -63 -116 -83 -168 -155
-33 -46 -73 -112 -90 -146 -40 -85 -59 -116 -146 -236 -41 -57 -79 -114 -84
-126 -8 -17 -3 -60 23 -177 37 -172 43 -319 18 -437 l-14 -63 67 -67 c58 -58
68 -74 78 -122 22 -107 72 -266 101 -325 69 -137 212 -292 338 -365 103 -59
208 -110 229 -110 42 0 28 -21 -51 -82 -99 -75 -125 -101 -145 -148 -76 -176
-163 -415 -187 -512 l-6 -28 641 0 641 0 -8 32 c-10 48 -108 315 -161 441 -49
118 -67 140 -180 223 -71 53 -83 74 -42 74 21 0 126 51 229 110 126 73 266
224 339 365 28 53 66 173 92 290 5 22 12 51 15 64 3 13 35 55 71 93 l66 68
-13 68 c-22 110 -21 243 1 346 11 50 27 127 36 172 l16 81 -95 134 c-52 74
-114 172 -138 219 -24 47 -70 122 -102 167 -51 71 -73 92 -164 153 -180 120
-337 183 -487 196 -126 10 -144 10 -217 3z m43 -791 c4 -24 9 -79 14 -123 4
-44 8 -83 9 -87 1 -5 2 -12 3 -18 3 -27 180 9 288 60 76 35 129 71 208 140
l59 53 12 -44 c6 -24 24 -71 41 -103 l30 -59 63 81 c35 45 65 82 67 82 13 0
89 -217 80 -226 -1 -1 -27 2 -57 8 -69 13 -217 3 -290 -18 -30 -9 -102 -19
-159 -23 l-103 -6 -28 -75 c-15 -41 -39 -92 -53 -113 -14 -21 -31 -54 -37 -72
l-12 -35 -78 0 -78 0 -11 33 c-7 19 -25 55 -41 80 -15 25 -40 76 -53 114 l-25
68 -103 6 c-57 4 -131 15 -164 25 -45 13 -94 18 -195 18 -100 0 -125 3 -100
10 97 25 296 98 484 176 116 48 214 88 217 89 4 0 9 -18 12 -41z m-394 -410
c231 -72 234 -73 259 -112 31 -46 41 -143 22 -202 -18 -53 -81 -118 -143 -145
-45 -21 -68 -24 -162 -24 -106 0 -113 1 -188 37 -51 25 -96 56 -132 92 -54 54
-55 56 -55 113 0 32 5 104 12 161 l12 102 50 25 c27 14 59 25 70 25 12 1 126
-32 255 -72z m1232 44 l54 -28 6 -59 c4 -33 7 -104 8 -158 l1 -98 -53 -54
c-59 -59 -144 -106 -225 -125 -76 -18 -194 -9 -259 20 -61 26 -125 91 -143
144 -19 58 -9 153 21 201 25 39 27 39 255 112 126 39 241 72 255 73 15 0 51
-13 80 -28z m-701 -334 c0 -37 45 -122 84 -162 111 -110 326 -144 511 -81 39
14 75 25 78 25 22 0 -10 -245 -44 -335 -31 -82 -96 -156 -175 -197 -130 -68
-189 -70 -285 -10 -33 22 -50 27 -67 21 -67 -25 -296 -25 -364 0 -16 6 -35 -1
-76 -26 -96 -57 -142 -55 -276 15 -74 39 -133 102 -168 181 -24 52 -58 234
-58 307 l0 53 61 -25 c174 -71 388 -48 519 56 41 33 100 137 100 177 0 22 3
23 80 23 76 0 80 -1 80 -22z"/>
<path d="M1580 1928 c-36 -5 -84 -11 -107 -14 -54 -7 -99 -44 -114 -93 -16
-53 -9 -85 19 -89 20 -3 22 1 22 38 0 60 41 100 104 100 43 0 46 -2 41 -23
-22 -85 91 -133 131 -56 15 30 15 43 -1 82 -6 14 -2 17 28 17 39 0 67 -27 67
-65 0 -30 14 -47 33 -39 31 11 16 87 -25 132 -24 25 -75 27 -198 10z"/>
<path d="M2222 1913 c-35 -34 -53 -110 -31 -124 23 -14 34 -5 40 34 8 49 25
67 65 67 37 0 39 -2 23 -32 -22 -42 18 -108 66 -108 14 0 37 12 52 26 21 21
24 32 20 61 l-6 35 51 -4 c66 -7 98 -39 98 -99 0 -36 2 -40 23 -37 49 7 24
128 -35 162 -30 18 -69 24 -265 42 -70 7 -72 6 -101 -23z"/>
<path d="M1921 1703 c-7 -32 -29 -87 -48 -123 -48 -87 -50 -151 -5 -191 l30
-27 -42 -12 c-51 -15 -130 -57 -152 -81 -12 -14 -13 -22 -4 -39 16 -30 6 -36
-18 -10 -17 18 -24 20 -41 11 -29 -16 -26 -28 15 -66 127 -117 565 -117 689
-1 41 39 43 51 13 67 -17 9 -24 9 -32 -2 -6 -8 -20 -21 -30 -29 -19 -15 -19
-14 -2 18 20 40 14 50 -49 88 -51 29 -114 50 -177 59 -30 4 -48 11 -48 19 0 8
-18 15 -47 19 -35 4 -53 12 -71 32 -28 33 -24 57 19 129 28 45 69 170 59 179
-3 3 -14 7 -26 11 -19 6 -22 0 -33 -51z m201 -454 c60 -13 148 -48 148 -59 0
-4 -12 -12 -27 -18 -125 -49 -361 -49 -485 0 -37 14 -35 22 12 43 94 42 243
57 352 34z"/>
</g>
</svg>
